<svg width="24" height="25" viewBox="0 0 24 25" fill="none" xmlns="http://www.w3.org/2000/svg">
<g id="email-icon">
<g id="Message">
<path id="Message_2" fill-rule="evenodd" clip-rule="evenodd" d="M16.939 3.82031C18.28 3.82031 19.57 4.35031 20.519 5.30131C21.469 6.25031 22 7.53031 22 8.87031V16.7703C22 19.5603 19.73 21.8203 16.939 21.8203H7.06C4.269 21.8203 2 19.5603 2 16.7703V8.87031C2 6.08031 4.259 3.82031 7.06 3.82031H16.939ZM18.5299 10.3606L18.6099 10.2806C18.8489 9.99064 18.8489 9.57064 18.5989 9.28064C18.4599 9.13164 18.2689 9.04064 18.0699 9.02064C17.8599 9.00964 17.6599 9.08064 17.5089 9.22064L12.9999 12.8206C12.4199 13.3016 11.5889 13.3016 10.9999 12.8206L6.49993 9.22064C6.18893 8.99064 5.75893 9.02064 5.49993 9.29064C5.22993 9.56064 5.19993 9.99064 5.42893 10.2906L5.55993 10.4206L10.1099 13.9706C10.6699 14.4106 11.3489 14.6506 12.0599 14.6506C12.7689 14.6506 13.4599 14.4106 14.0189 13.9706L18.5299 10.3606Z" fill="white"/>
</g>
</g>
</svg>
