<svg width="123" height="37" viewBox="0 0 123 37" fill="none" xmlns="http://www.w3.org/2000/svg">
<path d="M19.1249 0H32.7173L6.40277 23.8345L0 16.8952L19.1249 0Z" fill="white"/>
<path d="M7.32092 25.2653L9.9798 23.0118L20.3292 34.6012H15.4883L7.32092 25.2653Z" fill="white"/>
<path d="M16.8953 17.6583L33.7905 34.5535V17.6583H16.8953Z" fill="white"/>
<path d="M51.6237 35V30.9408H50.0275V30.184H54.1142V30.9408H52.5181V35H51.6237ZM55.6799 34.2501H58.3975V35H54.7855V30.184H58.3012V30.9339H55.6799V32.1861H58.0053V32.9222H55.6799V34.2501ZM61.6035 35.0688C60.1312 35.0688 59.0304 34.0299 59.0304 32.592C59.0304 31.1541 60.1312 30.1152 61.6104 30.1152C62.3947 30.1152 63.0689 30.3973 63.5161 30.9202L62.9382 31.4637C62.5873 31.0853 62.1539 30.8995 61.6517 30.8995C60.6541 30.8995 59.9317 31.6013 59.9317 32.592C59.9317 33.5827 60.6541 34.2845 61.6517 34.2845C62.1539 34.2845 62.5873 34.0987 62.9382 33.7134L63.5161 34.2638C63.0689 34.7867 62.3947 35.0688 61.6035 35.0688ZM67.7581 30.184H68.6525V35H67.7581V32.936H65.2675V35H64.3731V30.184H65.2675V32.1723H67.7581V30.184ZM73.3348 30.184H74.2223V35H73.4862L70.8305 31.7389V35H69.943V30.184H70.6791L73.3348 33.4451V30.184ZM77.7626 35.0688C76.2696 35.0688 75.1688 34.0162 75.1688 32.592C75.1688 31.1678 76.2696 30.1152 77.7626 30.1152C79.2555 30.1152 80.3563 31.161 80.3563 32.592C80.3563 34.023 79.2555 35.0688 77.7626 35.0688ZM77.7626 34.2845C78.7327 34.2845 79.4551 33.5758 79.4551 32.592C79.4551 31.6082 78.7327 30.8995 77.7626 30.8995C76.7925 30.8995 76.0701 31.6082 76.0701 32.592C76.0701 33.5758 76.7925 34.2845 77.7626 34.2845ZM81.3044 35V30.184H82.1988V34.2432H84.7169V35H81.3044ZM87.5854 35.0688C86.0924 35.0688 84.9916 34.0162 84.9916 32.592C84.9916 31.1678 86.0924 30.1152 87.5854 30.1152C89.0783 30.1152 90.1791 31.161 90.1791 32.592C90.1791 34.023 89.0783 35.0688 87.5854 35.0688ZM87.5854 34.2845C88.5555 34.2845 89.2779 33.5758 89.2779 32.592C89.2779 31.6082 88.5555 30.8995 87.5854 30.8995C86.6153 30.8995 85.8929 31.6082 85.8929 32.592C85.8929 33.5758 86.6153 34.2845 87.5854 34.2845ZM94.4158 34.0368V32.537H95.2621V34.4565C94.7598 34.8624 94.0581 35.0688 93.3769 35.0688C91.884 35.0688 90.7832 34.0299 90.7832 32.592C90.7832 31.1541 91.884 30.1152 93.3907 30.1152C94.1957 30.1152 94.8699 30.3835 95.324 30.8995L94.7598 31.4499C94.3814 31.0715 93.948 30.8995 93.432 30.8995C92.4069 30.8995 91.6845 31.5944 91.6845 32.592C91.6845 33.569 92.4069 34.2845 93.4251 34.2845C93.7691 34.2845 94.1062 34.2157 94.4158 34.0368ZM96.4417 35V30.184H97.3361V35H96.4417ZM99.5332 34.2501H102.251V35H98.6388V30.184H102.154V30.9339H99.5332V32.1861H101.859V32.9222H99.5332V34.2501ZM104.741 35.0688C103.991 35.0688 103.241 34.8349 102.842 34.4909L103.151 33.796C103.537 34.1056 104.149 34.3258 104.741 34.3258C105.491 34.3258 105.807 34.0574 105.807 33.6997C105.807 32.6608 102.945 33.3419 102.945 31.5531C102.945 30.7757 103.564 30.1152 104.885 30.1152C105.463 30.1152 106.069 30.2666 106.488 30.5418L106.206 31.2366C105.773 30.9821 105.298 30.8582 104.878 30.8582C104.135 30.8582 103.833 31.1472 103.833 31.5118C103.833 32.537 106.688 31.8696 106.688 33.6378C106.688 34.4083 106.062 35.0688 104.741 35.0688Z" fill="white"/>
<path d="M61.1185 15.7148L58.7696 13.3659L61.1185 11.017V0.91804L61.7981 0.238419H53.7261V10.3255H49.6841V0.238419H41.6121L42.2917 0.91804V34.5535L49.6841 26.4814V16.3944H53.7261V26.4814H61.7981L61.1185 25.8018V15.7148Z" fill="white"/>
<path d="M75.9271 0.238425L76.5948 0.918047V20.4244H75.9271H71.8971H71.2174V0.906123L71.8851 0.238425H63.8131L64.4927 0.918047V26.4814H83.3314V0.906123L84.011 0.226501H75.9271V0.238425Z" fill="white"/>
<path d="M98.1281 16.3825L98.8077 17.0621V20.4244H93.4184V0.906123L94.098 0.226501H86.026L86.7056 0.906123V26.4695H105.544V17.0502L106.224 16.3705H98.1281V16.3825Z" fill="white"/>
<path d="M123 0.238419L122.356 0.882272V6.29542H116.299V34.5535L108.227 26.4814V6.29542H102.17V0.882272L101.526 0.238419H123Z" fill="white"/>
</svg>
