<svg width="24" height="25" viewBox="0 0 24 25" fill="none" xmlns="http://www.w3.org/2000/svg">
<g id="location-icon">
<g id="Location">
<path id="Location_2" fill-rule="evenodd" clip-rule="evenodd" d="M12.03 2.82033C14.29 2.83033 16.45 3.73033 18.03 5.31033C19.62 6.90033 20.51 9.05033 20.5 11.2803V11.3303C20.44 14.3603 18.74 17.1503 16.62 19.3303C15.42 20.5603 14.09 21.6503 12.64 22.5703C12.25 22.9003 11.68 22.9003 11.29 22.5703C9.14 21.1703 7.24 19.4103 5.7 17.3603C4.35 15.5803 3.58 13.4403 3.5 11.2103C3.52 6.56033 7.34 2.81033 12.03 2.82033ZM12.0298 14.08C12.7398 14.08 13.4198 13.81 13.9198 13.32C14.4398 12.81 14.7308 12.131 14.7308 11.42C14.7308 9.93998 13.5198 8.74998 12.0298 8.74998C10.5398 8.74998 9.33984 9.93998 9.33984 11.42C9.33984 12.881 10.5198 14.06 11.9998 14.08H12.0298Z" fill="white"/>
</g>
</g>
</svg>
