<svg width="24" height="25" viewBox="0 0 24 25" fill="none" xmlns="http://www.w3.org/2000/svg">
<g id="phone-icon">
<g id="Mobile">
<path id="Mobile_2" fill-rule="evenodd" clip-rule="evenodd" d="M5.00846 11.5151C5.00846 10.8965 5.01591 10.2778 5.02339 9.65631L5.02339 9.6563C5.02719 9.34121 5.03099 9.02538 5.03384 8.70844C5.03384 5.30314 7.16556 2.82031 10.1094 2.82031H13.8906C16.8344 2.82031 18.9662 5.30314 18.9662 8.70844C18.9915 10.0725 19 11.4366 19 12.8105C19 14.1844 18.9915 15.5681 18.9662 16.9322C18.9662 20.3375 16.8344 22.8203 13.8906 22.8203H10.1094C7.16556 22.8203 5.03384 20.3375 5.03384 16.9224C5.01692 15.6368 5 14.3218 5 12.9871L5.00846 11.5151ZM13.2807 20.4603V20.6203C13.2807 21.2939 12.7175 21.8203 12.0007 21.8203C11.301 21.8203 10.7207 21.2939 10.7207 20.6203V20.4603C10.7207 19.8043 11.301 19.2603 12.0007 19.2603C12.7175 19.2603 13.2807 19.8043 13.2807 20.4603ZM7.01671 9.26371C7.01136 9.6677 7.00604 10.0698 7.00604 10.4719L7 11.4288C7 12.2963 7.01208 13.151 7.02417 13.9867C7.02417 16.2065 8.54683 17.8203 10.6495 17.8203H13.3505C15.4532 17.8203 16.9758 16.2065 16.9758 13.993C16.994 13.1064 17 12.207 17 11.3139C17 10.4209 16.994 9.53425 16.9758 8.64759C16.9758 6.43415 15.4532 4.82031 13.3505 4.82031H10.6495C8.54683 4.82031 7.02417 6.43415 7.02417 8.64759C7.02214 8.85361 7.01942 9.0589 7.01671 9.26371Z" fill="white"/>
</g>
</g>
</svg>
